<svg xmlns="http://www.w3.org/2000/svg" viewBox="0 0 613 145">
  <path d="M127.4 104.3c-1.5.6-3.1.9-4.7.9-4.7 0-7.3-2.6-7.3-7.3V58.5h14.3v-9.2h-14.3V34.2l-11 3.3v11.8h-8.7v9.2h8.7v39.2c0 11 6 17 16.7 17 3.2 0 6.3-.7 9.2-2l-2.9-8.4zm-62.3-56.6c-14.6 0-24.3 8.2-24.3 20.3 0 10 6.1 16.1 18.7 19.2l8.1 2c7.6 1.8 11 4.3 11 9.3 0 6-5.2 9.8-13.5 9.8-7.6 0-13.7-3.1-18.6-9l-7.2 6.6c6.3 7.8 15.2 11.8 25.5 11.8 16 0 25.6-8.4 25.6-21.2 0-11-6.8-16.6-19.5-19.7l-7.7-1.9c-7.1-1.8-10.5-4.2-10.5-9 0-5.8 4.8-9.4 12.8-9.4 6.7 0 12.1 2.6 16.4 7.8l7.1-6.5c-5.8-7-13.8-10.8-23.9-11.1zm364.8 0c-14.6 0-24.3 8.2-24.3 20.3 0 10 6.1 16.1 18.7 19.2l8.1 2c7.6 1.8 11 4.3 11 9.3 0 6-5.2 9.8-13.5 9.8-7.6 0-13.7-3.1-18.6-9l-7.2 6.6c6.3 7.8 15.2 11.8 25.5 11.8 16 0 25.6-8.4 25.6-21.2 0-11-6.8-16.6-19.5-19.7l-7.7-1.9c-7.1-1.8-10.5-4.2-10.5-9 0-5.8 4.8-9.4 12.8-9.4 6.7 0 12.1 2.6 16.4 7.8l7.1-6.5c-5.8-7-13.8-10.8-23.9-11.1zm-249.2 0c-22 0-37.4 15.2-37.4 36.3s15.3 33.5 36.3 33.5c12.3 0 22.7-4.8 30-13.8l-7.8-6c-5.5 6.6-12.9 10.1-21.8 10.1-14 0-24.5-8.5-25.7-22.6h58.2c.2-1.6.3-3.3.3-5 0-20.6-13.3-32.5-32.1-32.5zm-20.5 29.1c2.2-12.4 11.5-19.7 21.7-19.7 11.7 0 19.7 7.4 20.6 19.7h-42.3zm91.1-29.1c-10.9 0-19.5 4.9-24.2 13.2V23.2h-11v92.3h11V77.9c0-14.6 8-23.9 20.1-23.9 1.8 0 3.6.2 5.3.5l1.7-10.1c-1-.3-2-.5-2.9-.7zm103.3 0c-10.9 0-19.5 4.9-24.2 13.2V23.2h-11v92.3h11V77.9c0-14.6 8-23.9 20.1-23.9 1.8 0 3.6.2 5.3.5l1.7-10.1c-1-.3-2-.5-2.9-.7zm46.3 0c-22 0-37.4 15.2-37.4 36.3s15.3 33.5 36.3 33.5c12.3 0 22.7-4.8 30-13.8l-7.8-6c-5.5 6.6-12.9 10.1-21.8 10.1-14 0-24.5-8.5-25.7-22.6h58.2c.2-1.6.3-3.3.3-5 0-20.6-13.3-32.5-32.1-32.5zm-20.5 29.1c2.2-12.4 11.5-19.7 21.7-19.7 11.7 0 19.7 7.4 20.6 19.7h-42.3zM229.3 49.3h-11v66.2h11V49.3zm-5.5-30.7c-4.1 0-7.3 3.2-7.3 7.1 0 4 3.2 7.2 7.3 7.2 4.1 0 7.3-3.2 7.3-7.2 0-3.9-3.2-7.1-7.3-7.1zm88.3 30.7h-17.6L259 89.5l-35.5-40.2h-17.6l44 50.8v15.4h11v-15.4l44-50.8z" fill="#fff"/>
  <path d="M613 24.8c0 .3 0 .5-.1.8-.1.2-.3.5-.5.6-.2.2-.5.3-.8.4-.3.1-.6.1-1 .1h-1.6v-3.8h1.6c.4 0 .7 0 1 .1.3.1.6.2.8.4.2.2.4.4.5.6.1.3.1.5.1.8zm1.1 0c0-.4-.1-.8-.2-1.2-.2-.3-.4-.6-.7-.8-.3-.2-.6-.4-1-.5-.4-.1-.8-.2-1.2-.2h-2.8v9h1.2v-3.5h1.6c.4 0 .8-.1 1.2-.2.4-.1.7-.3 1-.5.3-.2.5-.5.7-.8.1-.4.2-.8.2-1.3zm-1.1 5.3c.3.5.5.8.6 1.1.2.3.3.5.4.7.1.2.2.4.3.5.1.2.2.3.3.5h1.3l-.4-.6c-.1-.2-.3-.4-.4-.6-.2-.2-.3-.5-.5-.7-.2-.3-.4-.5-.7-.9-.4.2-.8.3-1.2.3h-1.6v-1.5h1.6l.3-.8z" fill="#fff"/>
</svg>
