<svg xmlns="http://www.w3.org/2000/svg" viewBox="0 0 200 200">
  <defs>
    <linearGradient id="hat-grad" x1="0%" y1="0%" x2="100%" y2="100%">
      <stop offset="0%" style="stop-color:#EE0000;stop-opacity:1"/>
      <stop offset="100%" style="stop-color:#CC0000;stop-opacity:1"/>
    </linearGradient>
  </defs>
  <!-- Brim -->
  <ellipse cx="100" cy="140" rx="90" ry="25" fill="url(#hat-grad)"/>
  <!-- Crown -->
  <path d="M30 140 C30 140, 25 80, 55 55 C75 38, 100 35, 120 38 C145 42, 165 60, 170 80 C175 100, 170 140, 170 140" fill="url(#hat-grad)"/>
  <!-- Band -->
  <path d="M30 130 C30 120, 50 108, 100 108 C150 108, 170 120, 170 130" fill="none" stroke="#AA0000" stroke-width="6"/>
  <!-- Highlight on crown -->
  <path d="M50 90 C55 65, 80 50, 105 50 C120 50, 135 58, 145 75" fill="none" stroke="rgba(255,255,255,0.25)" stroke-width="4" stroke-linecap="round"/>
</svg>
